<svg width="47" height="47" viewBox="0 0 47 47" fill="none" xmlns="http://www.w3.org/2000/svg">
<path d="M23.5 32.3125V14.6875" stroke="#026EDD" stroke-width="2" stroke-linecap="round" stroke-linejoin="round"/>
<path d="M16.1562 26.4375C17.6087 26.4375 19.0285 26.8682 20.2362 27.6751C21.4439 28.4821 22.3852 29.629 22.941 30.9709C23.4968 32.3128 23.6423 33.7894 23.3589 35.2139C23.0755 36.6385 22.3761 37.947 21.3491 38.9741C20.322 40.0011 19.0135 40.7005 17.5889 40.9839C16.1644 41.2673 14.6878 41.1218 13.3459 40.566C12.004 40.0102 10.8571 39.0689 10.0501 37.8612C9.2432 36.6535 8.8125 35.2337 8.8125 33.7812V32.5512" stroke="#026EDD" stroke-width="2" stroke-linecap="round" stroke-linejoin="round"/>
<path d="M30.8438 26.4375C29.3913 26.4375 27.9715 26.8682 26.7638 27.6751C25.5561 28.4821 24.6148 29.629 24.059 30.9709C23.5032 32.3128 23.3578 33.7894 23.6411 35.2139C23.9245 36.6385 24.6239 37.947 25.6509 38.9741C26.678 40.0011 27.9865 40.7005 29.4111 40.9839C30.8356 41.2673 32.3122 41.1218 33.6541 40.566C34.996 40.0102 36.1429 39.0689 36.9499 37.8612C37.7568 36.6535 38.1875 35.2337 38.1875 33.7812V32.5512" stroke="#026EDD" stroke-width="2" stroke-linecap="round" stroke-linejoin="round"/>
<path d="M13.219 33.0469H11.7502C9.66722 33.0525 7.64957 32.32 6.05523 30.9795C4.46089 29.6389 3.39295 27.777 3.04087 25.7239C2.6888 23.6709 3.07535 21.5595 4.13194 19.7643C5.18854 17.9692 6.84688 16.6063 8.81273 15.9176V13.2188C8.81273 11.2711 9.58645 9.40315 10.9637 8.02593C12.3409 6.64871 14.2088 5.875 16.1565 5.875C18.1042 5.875 19.9721 6.64871 21.3493 8.02593C22.7265 9.40315 23.5002 11.2711 23.5002 13.2188V33.7812" stroke="#026EDD" stroke-width="2" stroke-linecap="round" stroke-linejoin="round"/>
<path d="M33.7812 33.0469H35.25C37.333 33.0525 39.3507 32.32 40.945 30.9795C42.5393 29.6389 43.6073 27.777 43.9594 25.7239C44.3114 23.6709 43.9249 21.5595 42.8683 19.7643C41.8117 17.9692 40.1534 16.6063 38.1875 15.9176V13.2188C38.1875 11.2711 37.4138 9.40315 36.0366 8.02593C34.6593 6.64871 32.7914 5.875 30.8438 5.875C28.8961 5.875 27.0282 6.64871 25.6509 8.02593C24.2737 9.40315 23.5 11.2711 23.5 13.2188" stroke="#026EDD" stroke-width="2" stroke-linecap="round" stroke-linejoin="round"/>
<path d="M16.1562 15.4219V16.8906C16.1563 18.254 15.6146 19.5615 14.6506 20.5256C13.6865 21.4896 12.379 22.0312 11.0156 22.0312" stroke="#026EDD" stroke-width="2" stroke-linecap="round" stroke-linejoin="round"/>
<path d="M30.8438 15.4219V16.8906C30.8438 18.254 31.3853 19.5615 32.3494 20.5256C33.3135 21.4896 34.621 22.0312 35.9844 22.0312" stroke="#026EDD" stroke-width="2" stroke-linecap="round" stroke-linejoin="round"/>
</svg>
