<svg width="47" height="47" viewBox="0 0 47 47" fill="none" xmlns="http://www.w3.org/2000/svg">
<path d="M10.0059 36.9941C8.3168 35.3051 9.43672 31.7617 8.57383 29.6871C7.71094 27.6125 4.40625 25.7949 4.40625 23.5C4.40625 21.2051 7.67422 19.4609 8.57383 17.3129C9.47344 15.1648 8.3168 11.6949 10.0059 10.0059C11.6949 8.3168 15.2383 9.43672 17.3129 8.57383C19.3875 7.71094 21.2051 4.40625 23.5 4.40625C25.7949 4.40625 27.5391 7.67422 29.6871 8.57383C31.8352 9.47344 35.3051 8.3168 36.9941 10.0059C38.6832 11.6949 37.5633 15.2383 38.4262 17.3129C39.2891 19.3875 42.5938 21.2051 42.5938 23.5C42.5938 25.7949 39.3258 27.5391 38.4262 29.6871C37.5266 31.8352 38.6832 35.3051 36.9941 36.9941C35.3051 38.6832 31.7617 37.5633 29.6871 38.4262C27.6125 39.2891 25.7949 42.5938 23.5 42.5938C21.2051 42.5938 19.4609 39.3258 17.3129 38.4262C15.1648 37.5266 11.6949 38.6832 10.0059 36.9941Z" stroke="#B62A99" stroke-width="2" stroke-linecap="round" stroke-linejoin="round"/>
<path d="M31.5781 19.0938L20.8012 29.375L15.4219 24.2344" stroke="#B62A99" stroke-width="2" stroke-linecap="round" stroke-linejoin="round"/>
</svg>
