<svg width="18" height="23" viewBox="0 0 18 23" fill="none" xmlns="http://www.w3.org/2000/svg">
<path fill-rule="evenodd" clip-rule="evenodd" d="M3.97407 9.40701C3.97407 6.58668 6.22425 4.30035 9 4.30035C11.7757 4.30035 14.0259 6.58668 14.0259 9.40701C14.0259 12.2273 11.7757 14.5137 9 14.5137C6.22425 14.5137 3.97407 12.2273 3.97407 9.40701ZM9 5.91298C7.10081 5.91298 5.5612 7.47731 5.5612 9.40701C5.5612 11.3367 7.10081 12.901 9 12.901C10.8992 12.901 12.4388 11.3367 12.4388 9.40701C12.4388 7.47731 10.8992 5.91298 9 5.91298Z" fill="#7845CB"/>
<path fill-rule="evenodd" clip-rule="evenodd" d="M0.0320048 8.17803C0.406915 3.55665 4.20774 0 8.77149 0H9.22852C13.7923 0 17.5931 3.55665 17.968 8.17803C18.1694 10.6606 17.4147 13.1256 15.8628 15.054L10.7913 21.3559C9.86549 22.5064 8.13451 22.5064 7.20868 21.3559L2.13718 15.054C0.585325 13.1256 -0.169391 10.6606 0.0320048 8.17803ZM8.77149 1.61263C5.03374 1.61263 1.92083 4.52555 1.61378 8.3105C1.44616 10.3766 2.07429 12.4283 3.36586 14.0332L8.43736 20.3351C8.72815 20.6965 9.27185 20.6965 9.56265 20.3351L14.6341 14.0332C15.9257 12.4283 16.5538 10.3766 16.3862 8.3105C16.0792 4.52555 12.9663 1.61263 9.22852 1.61263H8.77149Z" fill="#7845CB"/>
</svg>
