<svg width="176" height="44" viewBox="0 0 176 44" fill="none" xmlns="http://www.w3.org/2000/svg">
<path d="M16.5235 0C14.8449 0 13.481 1.36384 13.481 3.09487V15.0022C13.481 15.1072 13.4286 16.0514 12.904 16.9431C12.5368 17.625 11.8025 18.3594 9.80917 18.3594C7.7634 18.3594 7.08148 17.625 6.66184 16.9431C6.18974 16.0514 6.13728 15.1072 6.13728 15.0022V3.09487C6.13728 1.36384 4.72099 0 3.04241 0C1.36384 0 0 1.36384 0 3.09487V15.0022C0 15.4219 0.0524554 17.4677 1.20647 19.6183C2.83259 22.7657 5.87501 24.4967 9.80917 24.4967C13.6909 24.4967 16.7333 22.7657 18.4119 19.6183C19.5134 17.4677 19.5659 15.4219 19.5659 15.0022V3.09487C19.5659 1.36384 18.202 0 16.5235 0Z" fill="#7845CB"/>
<path d="M26.8113 36.7188C28.4899 36.7188 29.9061 35.355 29.9061 33.6764V22.8181C31.6896 23.8672 33.7879 24.4967 35.991 24.4967C42.7577 24.4967 48.2655 18.9889 48.2655 12.2221C48.2655 5.50782 42.7577 0 35.991 0C33.6829 0 31.4798 0.68192 29.5914 1.78348C29.1193 0.734376 28.0702 0 26.8113 0C25.1327 0 23.7689 1.36384 23.7689 3.04241V33.6764C23.7689 35.355 25.1327 36.7188 26.8113 36.7188ZM35.991 6.13728C39.4006 6.13728 42.1283 8.86497 42.1283 12.2221C42.1283 15.6317 39.4006 18.3594 35.991 18.3594C32.6338 18.3594 29.9061 15.6317 29.9061 12.2221C29.9061 8.86497 32.6338 6.13728 35.991 6.13728Z" fill="#7845CB"/>
<path d="M82.3026 0.209821C81.9354 0.104909 81.6206 0.0524547 81.2535 0.0524547C79.9945 0.0524547 78.8405 0.786831 78.4209 2.04576L74.8539 12.1697L71.2869 2.04576C70.8673 0.839285 69.7657 0.0524547 68.5068 0C68.3494 0 68.297 0 68.297 0C67.038 0.0524547 65.884 0.734376 65.4644 2.04576L61.9499 12.1697L58.3829 2.04576C57.9632 0.786831 56.8092 0.0524547 55.5503 0.0524547C55.1831 0.0524547 54.8159 0.104909 54.5012 0.209821C53.2423 0.629465 52.4554 1.78348 52.4554 3.09487C52.4554 3.4096 52.5079 3.77679 52.6128 4.09152L59.0648 22.4509C59.4845 23.6574 60.6385 24.4967 61.9499 24.4967C63.2612 24.4967 64.4153 23.6574 64.8349 22.4509L68.4019 12.2746L71.9688 22.4509C72.3885 23.6574 73.5425 24.4967 74.8539 24.4967C76.1653 24.4967 77.3193 23.6574 77.7389 22.4509L84.191 4.09152C84.2959 3.77679 84.3483 3.4096 84.3483 3.09487C84.3483 1.83594 83.5615 0.629465 82.3026 0.209821Z" fill="#1E1E1E"/>
<path d="M98.6916 0C91.9773 0 86.4695 5.50782 86.4695 12.2746C86.4695 18.9889 91.9773 24.4967 98.6916 24.4967C105.458 24.4967 110.966 18.9889 110.966 12.2746C110.966 5.50782 105.458 0 98.6916 0ZM98.6916 18.3594C95.3345 18.3594 92.6068 15.6317 92.6068 12.2746C92.6068 8.86497 95.3345 6.13728 98.6916 6.13728C102.101 6.13728 104.829 8.86497 104.829 12.2746C104.829 15.6317 102.101 18.3594 98.6916 18.3594Z" fill="#1E1E1E"/>
<path d="M127.378 0C120.664 0 115.156 5.50782 115.156 12.2746C115.156 18.9889 120.664 24.4967 127.378 24.4967C134.145 24.4967 139.653 18.9889 139.653 12.2746C139.653 5.50782 134.145 0 127.378 0ZM127.378 18.3594C124.021 18.3594 121.293 15.6317 121.293 12.2746C121.293 8.86497 124.021 6.13728 127.378 6.13728C130.788 6.13728 133.515 8.86497 133.515 12.2746C133.515 15.6317 130.788 18.3594 127.378 18.3594Z" fill="#1E1E1E"/>
<path d="M40.3615 38.8607C40.5947 38.8607 40.7987 38.7296 40.9152 38.511L42.8095 35.0869V39.6184C42.8095 39.9244 43.0572 40.1867 43.3777 40.1867C43.6691 40.1867 43.9314 39.9244 43.9314 39.6184V33.2363C43.9314 32.8866 43.6691 32.6244 43.3194 32.6244C43.0426 32.6244 42.8677 32.7701 42.7366 33.0032L40.347 37.3599L37.9573 33.0032C37.8262 32.7701 37.6513 32.6244 37.3745 32.6244C37.0248 32.6244 36.7625 32.8866 36.7625 33.2363V39.6184C36.7625 39.9244 37.0102 40.1867 37.3162 40.1867C37.6222 40.1867 37.8845 39.9244 37.8845 39.6184V35.0869L39.7787 38.511C39.8953 38.7296 40.0993 38.8607 40.3324 38.8607H40.3615Z" fill="black"/>
<path d="M49.711 35.9757C49.2593 35.8445 48.7639 35.7717 48.2393 35.7717C46.5199 35.7717 45.6748 36.5002 45.6748 37.9282V37.9865C45.6748 39.2979 46.4034 40.1867 47.9042 40.1867C48.691 40.1867 49.3467 39.9244 49.9004 39.4144C50.119 39.8661 50.5124 40.143 50.9932 40.143C51.3138 40.143 51.6489 40.0118 51.6489 39.6476C51.6489 39.3999 51.5032 39.1522 51.2263 39.1522C51.1681 39.1522 51.1535 39.1667 51.1098 39.1667C50.9349 39.1667 50.8475 39.021 50.8475 38.7296V35.524C50.8475 33.6006 50.119 32.5807 48.2976 32.5807C47.2922 32.5807 46.1994 32.8575 46.2576 33.5278C46.2722 33.7463 46.3888 34.0086 46.6656 34.0086C46.8259 34.0086 47.0008 33.9066 47.0445 33.892C47.365 33.7172 47.6419 33.586 48.1519 33.586C49.201 33.586 49.711 34.0815 49.711 35.1451V35.9757ZM48.2247 36.7334C48.6619 36.7334 49.2301 36.8062 49.711 36.9519V38.5256C49.201 38.9627 48.7056 39.1667 48.079 39.1667C47.1028 39.1667 46.7968 38.6859 46.7968 38.001V37.9428C46.7968 37.2871 47.0299 36.7334 48.2247 36.7334Z" fill="black"/>
<path d="M55.9243 40.1721C57.7748 40.1721 58.3577 38.9627 58.3577 37.2288V35.3346C58.3577 33.7026 57.5709 32.5807 56.0409 32.5807C55.2832 32.5807 54.5692 32.8721 53.9135 33.2218C53.7678 33.0178 53.5784 32.8721 53.3453 32.8721C53.0976 32.8721 52.8353 33.0761 52.8353 33.3821C52.8353 33.5132 52.879 33.586 52.9373 33.6735C53.1121 33.9358 53.1704 34.2126 53.1704 34.6934V42.6492C53.1704 42.9552 53.3744 43.2029 53.7387 43.2029C54.103 43.2029 54.307 42.9552 54.307 42.6492V39.8953C54.8315 40.0701 55.4289 40.1721 55.9243 40.1721ZM54.307 34.6934C54.307 34.5186 54.2778 34.3146 54.2341 34.096C54.7295 33.79 55.3124 33.6006 55.8078 33.6006C56.7695 33.6006 57.2212 34.198 57.2212 35.3346V37.2288C57.2212 38.5839 56.8423 39.1813 55.7786 39.1813C55.4144 39.1813 54.7732 39.0939 54.307 38.8753V34.6934Z" fill="black"/>
<path d="M61.2069 39.6184V36.7479H61.9063L63.9899 39.9098C64.1065 40.0993 64.2668 40.1867 64.4562 40.1867C64.7476 40.1867 64.9808 39.9973 64.9953 39.7058C64.9953 39.6039 64.9662 39.4581 64.9079 39.3707L62.9117 36.4128L64.9079 33.4549C64.9662 33.3675 64.9953 33.2218 64.9953 33.1198C64.9808 32.8284 64.7476 32.6389 64.4562 32.6389C64.2668 32.6389 64.1065 32.7264 63.9899 32.9158L62.0957 35.7863H61.2069V33.1926C61.2069 32.8866 60.9592 32.6244 60.6386 32.6244C60.318 32.6244 60.0703 32.8866 60.0703 33.1926V39.6184C60.0703 39.939 60.318 40.1867 60.6386 40.1867C60.9592 40.1867 61.2069 39.939 61.2069 39.6184Z" fill="black"/>
<path d="M68.6196 39.1813C67.5705 39.1813 67.0314 38.6567 67.0314 37.8408V36.9811C67.5414 37.0685 68.0805 37.1122 68.5176 37.1122C70.2516 37.1122 70.9801 36.2962 70.9801 34.9557C70.9801 33.5132 70.1787 32.5807 68.5613 32.5807C66.8274 32.5807 65.8949 33.6443 65.8949 35.0431V37.7679C65.8949 39.1376 66.842 40.1867 68.4885 40.1867C69.2753 40.1867 70.849 39.9536 70.849 39.2396C70.849 38.9773 70.6304 38.7296 70.339 38.7296C70.237 38.7296 70.1641 38.7587 70.135 38.7733C69.625 39.0064 69.2316 39.1813 68.6196 39.1813ZM69.8582 34.9557C69.8582 35.5531 69.6687 36.1505 68.5613 36.1505C68.2699 36.1505 67.5705 36.1214 67.0314 36.0485V34.9411C67.0314 34.1252 67.5851 33.6152 68.5322 33.6152C69.3773 33.6152 69.8582 34.0086 69.8582 34.9557Z" fill="black"/>
<path d="M75.0835 33.79H76.5989C76.8903 33.79 77.1235 33.5569 77.1235 33.2509C77.1235 32.9449 76.8903 32.7118 76.5989 32.7118H72.4316C72.1402 32.7118 71.9071 32.9449 71.9071 33.2509C71.9071 33.5569 72.1402 33.79 72.4316 33.79H73.947V39.6184C73.947 39.939 74.1947 40.1867 74.5153 40.1867C74.8358 40.1867 75.0835 39.939 75.0835 39.6184V33.79Z" fill="black"/>
<path d="M79.1955 40.2158C79.4286 40.2158 79.6472 40.0847 79.7784 39.8807L82.9985 34.708V39.6184C82.9985 39.939 83.2462 40.2158 83.5668 40.2158C83.8874 40.2158 84.1351 39.939 84.1351 39.6184V33.2509C84.1351 32.8866 83.8874 32.6098 83.5231 32.6098C83.2754 32.6098 83.0422 32.7409 82.9257 32.9595L79.6909 38.1176V33.2072C79.6909 32.8866 79.4286 32.6098 79.1081 32.6098C78.7875 32.6098 78.5544 32.8866 78.5544 33.2072V39.5747C78.5544 39.9244 78.8167 40.2158 79.1955 40.2158Z" fill="black"/>
<path d="M87.4175 39.6184V36.7479H90.5066V39.6184C90.5066 39.939 90.7543 40.1867 91.0748 40.1867C91.3954 40.1867 91.6431 39.939 91.6431 39.6184V33.1926C91.6431 32.8866 91.3954 32.6244 91.0748 32.6244C90.7543 32.6244 90.5066 32.8866 90.5066 33.1926V35.7863H87.4175V33.1926C87.4175 32.8866 87.1698 32.6244 86.8492 32.6244C86.5287 32.6244 86.281 32.8866 86.281 33.1926V39.6184C86.281 39.939 86.5287 40.1867 86.8492 40.1867C87.1698 40.1867 87.4175 39.939 87.4175 39.6184Z" fill="black"/>
<path d="M94.9022 33.7318H97.5687C97.8601 33.7318 98.0932 33.5132 98.0932 33.2218C98.0932 32.9304 97.8455 32.7118 97.5687 32.7118H94.2902C93.9988 32.7118 93.7657 32.9304 93.7657 33.2218V39.6184C93.7657 39.939 94.0134 40.1867 94.3339 40.1867C94.6545 40.1867 94.9022 39.939 94.9022 39.6184V33.7318Z" fill="black"/>
<path d="M108.466 32.7118H105.115C104.896 32.7118 104.605 32.8575 104.561 33.2801L104.43 36.238C104.357 37.6368 104.124 38.6567 103.672 39.1084H103.395C103.075 39.1084 102.827 39.3561 102.827 39.6767V41.5418C102.827 41.8623 103.075 42.1101 103.395 42.1101C103.716 42.1101 103.964 41.8623 103.964 41.5418V40.0701H108.859V41.5418C108.859 41.8623 109.107 42.1101 109.428 42.1101C109.748 42.1101 109.996 41.8623 109.996 41.5418V39.6767C109.996 39.3561 109.748 39.1084 109.428 39.1084H109.034V33.2801C109.034 32.9741 108.786 32.7118 108.466 32.7118ZM105.493 36.238L105.595 33.6735H107.898V39.1084H104.838C105.246 38.4382 105.45 37.4473 105.493 36.238Z" fill="black"/>
<path d="M116.904 39.6184V33.2801C116.904 32.9741 116.656 32.7118 116.336 32.7118H112.984C112.766 32.7118 112.474 32.8575 112.43 33.2801L112.052 37.7825C111.979 38.6713 111.746 39.0939 111.221 39.0939C111.119 39.0939 111.119 39.0793 111.032 39.0793C110.769 39.0793 110.493 39.2396 110.493 39.633C110.493 40.1284 110.93 40.143 111.381 40.143C112.532 40.143 113.013 39.1667 113.13 37.6951L113.45 33.6735H115.767V39.6184C115.767 39.939 116.015 40.1867 116.336 40.1867C116.656 40.1867 116.904 39.939 116.904 39.6184Z" fill="black"/>
<path d="M123.423 40.1867C123.744 40.1867 123.991 39.9244 123.991 39.6184V33.2801C123.991 32.9741 123.744 32.7118 123.423 32.7118H121.179C119.562 32.7118 118.76 33.586 118.76 34.8537C118.76 35.9903 119.241 36.7334 120.392 36.9811L118.789 39.3707C118.731 39.4581 118.702 39.6039 118.702 39.7058C118.717 39.9973 118.935 40.1867 119.241 40.1867C119.431 40.1867 119.576 40.0993 119.707 39.9098L121.573 37.0685H122.855V39.6184C122.855 39.9244 123.102 40.1867 123.423 40.1867ZM119.882 34.8974C119.882 34.0669 120.349 33.688 121.208 33.688H122.855V36.1068H121.369C120.115 36.1068 119.882 35.4803 119.882 34.8974Z" fill="black"/>
<path d="M130.098 33.1198V37.5931C130.098 39.0502 131.045 40.1867 132.823 40.1867C134.601 40.1867 135.548 39.0502 135.548 37.5931V35.5823C135.548 34.1252 134.615 32.9886 133.041 32.9886C132.225 32.9886 131.628 33.2946 131.235 33.79V33.0469C131.235 31.1673 132.371 31.0361 132.998 30.9778C133.741 30.9196 135.213 30.7884 135.213 30.0453C135.213 29.7539 134.994 29.5208 134.703 29.5208C134.601 29.5208 134.528 29.5499 134.499 29.5645C133.508 30.0162 133.508 29.9142 132.983 29.9725C130.958 30.1764 130.098 31.2693 130.098 33.1198ZM132.823 39.1376C131.774 39.1376 131.235 38.5547 131.235 37.5931V35.4948C131.264 34.5914 131.876 34.0377 132.896 34.0377C133.945 34.0377 134.411 34.6206 134.411 35.5677V37.5931C134.411 38.5547 133.872 39.1376 132.823 39.1376Z" fill="black"/>
<path d="M137.92 40.2158C138.154 40.2158 138.372 40.0847 138.503 39.8807L141.723 34.708V39.6184C141.723 39.939 141.971 40.2158 142.292 40.2158C142.612 40.2158 142.86 39.939 142.86 39.6184V33.2509C142.86 32.8866 142.612 32.6098 142.248 32.6098C142 32.6098 141.767 32.7409 141.651 32.9595L138.416 38.1176V33.2072C138.416 32.8866 138.154 32.6098 137.833 32.6098C137.512 32.6098 137.279 32.8866 137.279 33.2072V39.5747C137.279 39.9244 137.542 40.2158 137.92 40.2158Z" fill="black"/>
<path d="M149.1 34.6643C149.1 33.4403 148.299 32.5807 146.696 32.5807C145.909 32.5807 144.656 32.7846 144.656 33.4112C144.656 33.6735 144.875 33.9212 145.181 33.9212C145.283 33.9212 145.356 33.892 145.443 33.8483C145.749 33.7172 146.099 33.586 146.652 33.586C147.585 33.586 147.993 33.9358 147.993 34.5914C147.993 34.9994 147.833 35.7425 146.39 35.8591C146.113 35.8883 145.72 35.8883 145.72 36.34C145.72 36.7917 146.113 36.8208 146.434 36.8354C148.022 36.9228 148.139 37.6076 148.139 38.0156C148.139 38.8607 147.658 39.1813 146.798 39.1813C146.142 39.1813 145.574 38.9919 145.21 38.8462C145.181 38.8316 145.195 38.817 145.093 38.817C144.656 38.817 144.51 39.1084 144.51 39.327C144.51 40.0118 145.997 40.1867 146.754 40.1867C148.43 40.1867 149.246 39.3561 149.246 38.0885C149.246 37.1414 148.794 36.5148 147.716 36.3108C148.707 36.1214 149.1 35.524 149.1 34.6643Z" fill="black"/>
<path d="M152.09 39.6184V36.7479H155.179V39.6184C155.179 39.939 155.427 40.1867 155.748 40.1867C156.068 40.1867 156.316 39.939 156.316 39.6184V33.1926C156.316 32.8866 156.068 32.6244 155.748 32.6244C155.427 32.6244 155.179 32.8866 155.179 33.1926V35.7863H152.09V33.1926C152.09 32.8866 151.843 32.6244 151.522 32.6244C151.202 32.6244 150.954 32.8866 150.954 33.1926V39.6184C150.954 39.939 151.202 40.1867 151.522 40.1867C151.843 40.1867 152.09 39.939 152.09 39.6184Z" fill="black"/>
<path d="M160.755 39.1813C159.706 39.1813 159.167 38.6567 159.167 37.8408V36.9811C159.677 37.0685 160.216 37.1122 160.653 37.1122C162.387 37.1122 163.116 36.2962 163.116 34.9557C163.116 33.5132 162.314 32.5807 160.697 32.5807C158.963 32.5807 158.031 33.6443 158.031 35.0431V37.7679C158.031 39.1376 158.978 40.1867 160.624 40.1867C161.411 40.1867 162.985 39.9536 162.985 39.2396C162.985 38.9773 162.766 38.7296 162.475 38.7296C162.373 38.7296 162.3 38.7587 162.271 38.7733C161.761 39.0064 161.367 39.1813 160.755 39.1813ZM161.994 34.9557C161.994 35.5531 161.804 36.1505 160.697 36.1505C160.406 36.1505 159.706 36.1214 159.167 36.0485V34.9411C159.167 34.1252 159.721 33.6152 160.668 33.6152C161.513 33.6152 161.994 34.0086 161.994 34.9557Z" fill="black"/>
<path d="M164.334 37.5056C164.334 39.0064 165.121 40.1867 166.942 40.1867C167.627 40.1867 168.968 39.9827 168.968 39.2979C168.968 39.0356 168.749 38.8024 168.472 38.8024C168.399 38.8024 168.327 38.817 168.239 38.8462C167.889 39.021 167.569 39.1813 167.059 39.1813C165.922 39.1813 165.471 38.5693 165.471 37.5056V35.3054C165.471 34.2417 165.922 33.6298 167.059 33.6298C167.569 33.6298 167.889 33.79 168.239 33.9649C168.327 33.994 168.399 34.0086 168.472 34.0086C168.749 34.0086 168.968 33.7755 168.968 33.5132C168.968 32.8284 167.627 32.6244 166.942 32.6244C165.121 32.6244 164.334 33.8046 164.334 35.3054V37.5056Z" fill="black"/>
<path d="M174.062 35.9757C173.61 35.8445 173.115 35.7717 172.59 35.7717C170.871 35.7717 170.026 36.5002 170.026 37.9282V37.9865C170.026 39.2979 170.754 40.1867 172.255 40.1867C173.042 40.1867 173.698 39.9244 174.252 39.4144C174.47 39.8661 174.863 40.143 175.344 40.143C175.665 40.143 176 40.0118 176 39.6476C176 39.3999 175.854 39.1522 175.577 39.1522C175.519 39.1522 175.505 39.1667 175.461 39.1667C175.286 39.1667 175.199 39.021 175.199 38.7296V35.524C175.199 33.6006 174.47 32.5807 172.649 32.5807C171.643 32.5807 170.55 32.8575 170.609 33.5278C170.623 33.7463 170.74 34.0086 171.017 34.0086C171.177 34.0086 171.352 33.9066 171.396 33.892C171.716 33.7172 171.993 33.586 172.503 33.586C173.552 33.586 174.062 34.0815 174.062 35.1451V35.9757ZM172.576 36.7334C173.013 36.7334 173.581 36.8062 174.062 36.9519V38.5256C173.552 38.9627 173.057 39.1667 172.43 39.1667C171.454 39.1667 171.148 38.6859 171.148 38.001V37.9428C171.148 37.2871 171.381 36.7334 172.576 36.7334Z" fill="black"/>
<path d="M150.809 21.8564C150.809 23.4659 149.505 24.7706 147.895 24.7706C146.286 24.7706 144.981 23.4659 144.981 21.8564C144.981 20.247 146.286 18.9422 147.895 18.9422C149.505 18.9422 150.809 20.247 150.809 21.8564Z" fill="#7845CB"/>
</svg>
