<svg width="14" height="17" viewBox="0 0 14 17" fill="none" xmlns="http://www.w3.org/2000/svg">
<path d="M7 14.7874L10.85 10.9145C11.6114 10.1485 12.1298 9.17262 12.3399 8.11023C12.5499 7.04785 12.442 5.94667 12.03 4.94595C11.6179 3.94522 10.92 3.08989 10.0247 2.48811C9.12939 1.88634 8.07679 1.56514 7 1.56514C5.92321 1.56514 4.87061 1.88634 3.97529 2.48811C3.07997 3.08989 2.38214 3.94522 1.97004 4.94595C1.55795 5.94667 1.4501 7.04785 1.66013 8.11023C1.87016 9.17262 2.38864 10.1485 3.15 10.9145L7 14.7874ZM7 17L2.05022 12.0208C1.07127 11.036 0.404589 9.78129 0.1345 8.41535C-0.13559 7.04941 0.00303866 5.63358 0.532854 4.3469C1.06267 3.06021 1.95988 1.96046 3.11102 1.18672C4.26216 0.412982 5.61553 0 7 0C8.38447 0 9.73784 0.412982 10.889 1.18672C12.0401 1.96046 12.9373 3.06021 13.4671 4.3469C13.997 5.63358 14.1356 7.04941 13.8655 8.41535C13.5954 9.78129 12.9287 11.036 11.9498 12.0208L7 17ZM7 8.60638C7.41256 8.60638 7.80822 8.44151 8.09994 8.14806C8.39167 7.8546 8.55555 7.45658 8.55555 7.04157C8.55555 6.62656 8.39167 6.22854 8.09994 5.93508C7.80822 5.64163 7.41256 5.47676 7 5.47676C6.58744 5.47676 6.19178 5.64163 5.90006 5.93508C5.60833 6.22854 5.44445 6.62656 5.44445 7.04157C5.44445 7.45658 5.60833 7.8546 5.90006 8.14806C6.19178 8.44151 6.58744 8.60638 7 8.60638ZM7 10.1712C6.17488 10.1712 5.38356 9.84146 4.80011 9.25454C4.21667 8.66762 3.88889 7.87159 3.88889 7.04157C3.88889 6.21154 4.21667 5.41551 4.80011 4.8286C5.38356 4.24168 6.17488 3.91196 7 3.91196C7.82512 3.91196 8.61644 4.24168 9.19989 4.8286C9.78333 5.41551 10.1111 6.21154 10.1111 7.04157C10.1111 7.87159 9.78333 8.66762 9.19989 9.25454C8.61644 9.84146 7.82512 10.1712 7 10.1712Z" fill="#646464"/>
</svg>
