<svg width="18" height="18" viewBox="0 0 18 18" fill="none" xmlns="http://www.w3.org/2000/svg">
<path fill-rule="evenodd" clip-rule="evenodd" d="M2.256 6.80148C4.04331 10.6934 7.2238 13.7875 11.1776 15.4641L11.19 15.4694L11.9539 15.8099C12.9265 16.2432 14.0697 15.9354 14.6933 15.0724L15.9677 13.3086C16.0455 13.2009 16.0255 13.0511 15.922 12.9676L13.6973 11.1728C13.5867 11.0836 13.4241 11.1044 13.3395 11.2186L12.4736 12.3869C12.2633 12.6707 11.8836 12.7693 11.5618 12.6237C8.60539 11.2857 6.22968 8.91004 4.89175 5.95363C4.74614 5.63187 4.84474 5.25212 5.12849 5.04184L6.29686 4.17598C6.41103 4.09137 6.43181 3.92875 6.34259 3.81815L4.54755 1.59311C4.46412 1.48969 4.31437 1.46961 4.20664 1.54738L2.43335 2.82754C1.56456 3.45473 1.2586 4.60757 1.70206 5.58302L2.2554 6.80018C2.2556 6.80062 2.2558 6.80105 2.256 6.80148ZM10.5857 16.8424C6.28963 15.0188 2.83427 11.6558 0.892223 7.42607L0.891054 7.42353L0.336551 6.20381C-0.402549 4.57806 0.10738 2.65665 1.55536 1.61134L3.32865 0.33118C4.08277 -0.213227 5.131 -0.0726221 5.715 0.651271L7.51004 2.87632C8.1346 3.65049 7.98913 4.78888 7.18997 5.38112L6.52047 5.87727C7.65138 8.07167 9.44376 9.86405 11.6382 10.995L12.1343 10.3255C12.7266 9.52629 13.865 9.38083 14.6391 10.0054L16.8639 11.8002C17.588 12.3844 17.7284 13.433 17.1835 14.1871L15.9092 15.9509C14.8698 17.3893 12.9644 17.9023 11.3434 17.18L10.5857 16.8424Z" fill="white"/>
</svg>
