<svg width="42" height="42" viewBox="0 0 42 42" fill="none" xmlns="http://www.w3.org/2000/svg">
<path d="M5.25 10.5V23.625" stroke="#026EDD" stroke-width="2" stroke-linecap="round" stroke-linejoin="round"/>
<path d="M8.89258 35.4373C10.2058 33.423 12.0009 31.7682 14.1151 30.6228C16.2293 29.4773 18.5958 28.8774 21.0004 28.8774C23.4049 28.8774 25.7715 29.4773 27.8857 30.6228C29.9999 31.7682 31.7949 33.423 33.1082 35.4373" stroke="#026EDD" stroke-width="2" stroke-linecap="round" stroke-linejoin="round"/>
<path d="M36.75 10.5L21 15.75L5.25 10.5L21 5.25L36.75 10.5Z" stroke="#026EDD" stroke-width="2" stroke-linecap="round" stroke-linejoin="round"/>
<path d="M27.7758 13.4858C28.9797 14.8006 29.7752 16.4372 30.0652 18.1962C30.3551 19.9552 30.1271 21.7606 29.4088 23.3922C28.6906 25.0238 27.5131 26.4113 26.02 27.3854C24.527 28.3594 22.7827 28.8781 21 28.8781C19.2173 28.8781 17.4731 28.3594 15.98 27.3854C14.4869 26.4113 13.3094 25.0238 12.5912 23.3922C11.8729 21.7606 11.6449 19.9552 11.9348 18.1962C12.2248 16.4372 13.0203 14.8006 14.2242 13.4858" stroke="#026EDD" stroke-width="2" stroke-linecap="round" stroke-linejoin="round"/>
</svg>
