<svg width="54" height="54" viewBox="0 0 54 54" fill="none" xmlns="http://www.w3.org/2000/svg">
<rect width="54" height="54" rx="27" fill="url(#paint0_linear_119_14770)"/>
<path fill-rule="evenodd" clip-rule="evenodd" d="M12.2222 26.715C20.0932 23.2857 25.3418 21.0249 27.968 19.9326C35.4661 16.8139 37.0242 16.2721 38.0397 16.2542C38.2631 16.2503 38.7625 16.3056 39.086 16.5681C39.3591 16.7898 39.4343 17.0892 39.4703 17.2993C39.5062 17.5095 39.551 17.9882 39.5154 18.3622C39.1091 22.6316 37.3509 32.9921 36.4564 37.7738C36.0779 39.7972 35.3327 40.4756 34.6112 40.542C33.0433 40.6862 31.8527 39.5058 30.334 38.5103C27.9577 36.9525 26.6152 35.9829 24.3085 34.4628C21.6428 32.7061 23.3709 31.7406 24.8901 30.1627C25.2877 29.7498 32.196 23.4661 32.3298 22.896C32.3465 22.8247 32.362 22.559 32.2041 22.4187C32.0463 22.2784 31.8132 22.3263 31.6451 22.3645C31.4068 22.4186 27.6105 24.9278 20.2563 29.892C19.1788 30.632 18.2028 30.9925 17.3283 30.9736C16.3643 30.9528 14.5098 30.4285 13.1313 29.9804C11.4404 29.4308 10.0965 29.1402 10.2135 28.2067C10.2745 27.7205 10.944 27.2233 12.2222 26.715Z" fill="white"/>
<defs>
<linearGradient id="paint0_linear_119_14770" x1="27" y1="0" x2="27" y2="53.5995" gradientUnits="userSpaceOnUse">
<stop stop-color="#2AABEE"/>
<stop offset="1" stop-color="#229ED9"/>
</linearGradient>
</defs>
</svg>
