<svg width="14" height="14" viewBox="0 0 14 14" fill="none" xmlns="http://www.w3.org/2000/svg">
<path d="M7 14C3.1339 14 0 10.8661 0 7C0 3.1339 3.1339 0 7 0C10.8661 0 14 3.1339 14 7C14 10.8661 10.8661 14 7 14ZM7 12.6C8.48521 12.6 9.90959 12.01 10.9598 10.9598C12.01 9.90959 12.6 8.48521 12.6 7C12.6 5.51479 12.01 4.09041 10.9598 3.0402C9.90959 1.99 8.48521 1.4 7 1.4C5.51479 1.4 4.09041 1.99 3.0402 3.0402C1.99 4.09041 1.4 5.51479 1.4 7C1.4 8.48521 1.99 9.90959 3.0402 10.9598C4.09041 12.01 5.51479 12.6 7 12.6ZM7.7 7H10.5V8.4H6.3V3.5H7.7V7Z" fill="#646464"/>
</svg>
