<svg width="42" height="42" viewBox="0 0 42 42" fill="none" xmlns="http://www.w3.org/2000/svg">
<path d="M14.4375 26.25C19.1492 26.25 22.9688 22.4304 22.9688 17.7188C22.9688 13.0071 19.1492 9.1875 14.4375 9.1875C9.72582 9.1875 5.90625 13.0071 5.90625 17.7188C5.90625 22.4304 9.72582 26.25 14.4375 26.25Z" stroke="#026EDD" stroke-width="2" stroke-miterlimit="10"/>
<path d="M25.4951 9.49922C26.2493 9.29468 27.027 9.18988 27.8084 9.1875C30.071 9.1875 32.241 10.0863 33.8409 11.6862C35.4408 13.2862 36.3396 15.4561 36.3396 17.7188C36.3396 19.9814 35.4408 22.1513 33.8409 23.7513C32.241 25.3512 30.071 26.25 27.8084 26.25" stroke="#026EDD" stroke-width="2" stroke-linecap="round" stroke-linejoin="round"/>
<path d="M2.625 32.386C3.9571 30.4904 5.72584 28.9432 7.78182 27.8752C9.83781 26.8071 12.1206 26.2495 14.4375 26.2495C16.7544 26.2495 19.0372 26.8071 21.0932 27.8752C23.1492 28.9432 24.9179 30.4904 26.25 32.386" stroke="#026EDD" stroke-width="2" stroke-linecap="round" stroke-linejoin="round"/>
<path d="M27.8086 26.25C30.1257 26.2486 32.4089 26.8055 34.4651 27.8735C36.5213 28.9416 38.2899 30.4894 39.6211 32.3859" stroke="#026EDD" stroke-width="2" stroke-linecap="round" stroke-linejoin="round"/>
</svg>
