<svg width="42" height="42" viewBox="0 0 42 42" fill="none" xmlns="http://www.w3.org/2000/svg">
<path d="M13.125 32.8125C16.0245 32.8125 18.375 30.462 18.375 27.5625C18.375 24.663 16.0245 22.3125 13.125 22.3125C10.2255 22.3125 7.875 24.663 7.875 27.5625C7.875 30.462 10.2255 32.8125 13.125 32.8125Z" stroke="#026EDD" stroke-width="2" stroke-linecap="round" stroke-linejoin="round"/>
<path d="M5.25 36.75C6.16692 35.5274 7.35588 34.5352 8.72274 33.8517C10.0896 33.1683 11.5968 32.8125 13.125 32.8125C14.6532 32.8125 16.1604 33.1683 17.5273 33.8517C18.8941 34.5352 20.0831 35.5274 21 36.75" stroke="#026EDD" stroke-width="2" stroke-linecap="round" stroke-linejoin="round"/>
<path d="M13.125 15.75C16.0245 15.75 18.375 13.3995 18.375 10.5C18.375 7.6005 16.0245 5.25 13.125 5.25C10.2255 5.25 7.875 7.6005 7.875 10.5C7.875 13.3995 10.2255 15.75 13.125 15.75Z" stroke="#026EDD" stroke-width="2" stroke-linecap="round" stroke-linejoin="round"/>
<path d="M5.25 19.6875C6.16692 18.4649 7.35588 17.4727 8.72274 16.7892C10.0896 16.1058 11.5968 15.75 13.125 15.75C14.6532 15.75 16.1604 16.1058 17.5273 16.7892C18.8941 17.4727 20.0831 18.4649 21 19.6875" stroke="#026EDD" stroke-width="2" stroke-linecap="round" stroke-linejoin="round"/>
<path d="M28.875 32.8125C31.7745 32.8125 34.125 30.462 34.125 27.5625C34.125 24.663 31.7745 22.3125 28.875 22.3125C25.9755 22.3125 23.625 24.663 23.625 27.5625C23.625 30.462 25.9755 32.8125 28.875 32.8125Z" stroke="#026EDD" stroke-width="2" stroke-linecap="round" stroke-linejoin="round"/>
<path d="M21 36.75C21.9169 35.5274 23.1059 34.5352 24.4727 33.8517C25.8396 33.1683 27.3468 32.8125 28.875 32.8125C30.4032 32.8125 31.9104 33.1683 33.2773 33.8517C34.6441 34.5352 35.8331 35.5274 36.75 36.75" stroke="#026EDD" stroke-width="2" stroke-linecap="round" stroke-linejoin="round"/>
<path d="M28.875 15.75C31.7745 15.75 34.125 13.3995 34.125 10.5C34.125 7.6005 31.7745 5.25 28.875 5.25C25.9755 5.25 23.625 7.6005 23.625 10.5C23.625 13.3995 25.9755 15.75 28.875 15.75Z" stroke="#026EDD" stroke-width="2" stroke-linecap="round" stroke-linejoin="round"/>
<path d="M21 19.6875C21.9169 18.4649 23.1059 17.4727 24.4727 16.7892C25.8396 16.1058 27.3468 15.75 28.875 15.75C30.4032 15.75 31.9104 16.1058 33.2773 16.7892C34.6441 17.4727 35.8331 18.4649 36.75 19.6875" stroke="#026EDD" stroke-width="2" stroke-linecap="round" stroke-linejoin="round"/>
</svg>
