<svg width="24" height="21" viewBox="0 0 24 21" fill="none" xmlns="http://www.w3.org/2000/svg">
<path d="M12.0015 3.04902L11.3539 2.49944C8.91196 0.426998 5.13987 0.504367 2.79603 2.72206L12.0015 3.04902ZM12.0015 3.04902L12.6486 2.49895M12.0015 3.04902L12.6486 2.49895M12.6486 2.49895C15.0828 0.429901 18.8623 0.501915 21.2027 2.7213M12.6486 2.49895L21.2027 2.7213M21.2027 2.7213C23.5113 4.91271 23.5926 8.37139 21.4653 10.6469M21.2027 2.7213L21.4653 10.6469M21.4653 10.6469L11.9987 19.6219L2.53427 10.6469C0.406709 8.37116 0.490004 4.90653 2.79571 2.72236L21.4653 10.6469Z" stroke="#646464" stroke-width="2"/>
</svg>
